<svg class = "siteHeader__siteLogo" xmlns="http://www.w3.org/2000/svg" width="211.25" height="73.87" viewBox="0 0 211.25 73.87"><text class = "logoColor" transform="translate(18 60.47) scale(1.19 1)" style="font-size:50px;fill:#f2f2f2;font-family:Optima-Regular, Optima"><tspan style="letter-spacing:-0.16599884879764426em">T</tspan><tspan class = "siteHeader__logoFont" x="19.5" y="0" style="font-size:30px;font-family:Cochin-Italic, Cochin;font-style:italic;letter-spacing:-0.01600018637749235em;opacity:0.75">he</tspan><tspan x="42.42" y="0" xml:space="preserve" style="font-size:36px;font-family:MyriadPro-Regular, Myriad Pro;letter-spacing:-0.024998863034813808em">  </tspan><tspan x="55.88" y="0">M</tspan><tspan class = "siteHeader__logoFont" x="100.33" y="0" style="font-size:30px;font-family:Cochin-Italic, Cochin;font-style:italic;letter-spacing:-0.01600018637749235em;opacity:0.75">oston</tspan></text><path class = "logoColor" d="M15.54,3.65V21.48c0,.66-.4,1.21-.88,1.21s-.88-.55-.88-1.21V3.65H12V21.48c0,.66-.39,1.21-.87,1.21s-.88-.55-.88-1.21V3.65h-2V21.48c0,.66-.4,1.21-.88,1.21s-.88-.55-.88-1.21V3.65H5.21A6.53,6.53,0,0,0,5,5.27v15.8c0,2.67,1.58,4.86,3.51,4.86H9.87C8.74,37.74,7.93,65.34,7.93,65.34c0,1.27,1.31,2.31,2.92,2.31s2.93-1,2.93-2.31c0,0-.81-27.6-1.94-39.41h1.65c1.93,0,3.51-2.19,3.51-4.86V5.27a6.53,6.53,0,0,0-.21-1.62Z" transform="translate(-5 -3.65)" style="fill:#e6e6e6"/><path class = "logoColor" d="M211.25,3.9c-2.75,0-5,27.58-5,27.58,0,2,1.81,3.69,4.17,4v30a3,3,0,0,0,5.83,0V8C216.25,5.74,214,3.9,211.25,3.9Z" transform="translate(-5 -3.65)" style="fill:#e6e6e6"/></svg>