<svg class = "siteHeader__siteLogo" xmlns="http://www.w3.org/2000/svg" width="417" height="73.87" viewBox="0 0 417 73.87"><text class = "logoColor" transform="translate(12 60.47) scale(1.19 1)" style="font-size:50px;fill:#f2f2f2;font-family:Optima-Regular, Optima"><tspan style="letter-spacing:-0.16599884879764426em">T</tspan><tspan x="19.5" y="0" style="font-size:30px;font-family:Cochin-Italic, Cochin;font-style:italic;letter-spacing:-0.01600018637749235em;opacity:0.75">he</tspan><tspan x="42.42" y="0" xml:space="preserve" style="font-size:36px;font-family:MyriadPro-Regular, Myriad Pro;letter-spacing:-0.024998863034813808em">  </tspan><tspan x="55.88" y="0">M</tspan><tspan x="100.33" y="0" style="font-size:30px;font-family:Cochin-Italic, Cochin;font-style:italic;letter-spacing:-0.01600018637749235em;opacity:0.75">oston</tspan></text><text/><path class = "logoColor" d="M10.54,0V17.82c0,.67-.4,1.22-.88,1.22s-.88-.55-.88-1.22V0H7V17.82C7,18.49,6.63,19,6.15,19s-.88-.55-.88-1.22V0h-2V17.82c0,.67-.4,1.22-.88,1.22s-.88-.55-.88-1.22V0H.21A6.53,6.53,0,0,0,0,1.62v15.8c0,2.67,1.58,4.86,3.51,4.86H4.87C3.74,34.09,2.93,61.69,2.93,61.69,2.93,63,4.24,64,5.85,64s2.93-1,2.93-2.31c0,0-.81-27.6-1.94-39.41H8.49c1.93,0,3.51-2.19,3.51-4.86V1.62A6.53,6.53,0,0,0,11.79,0Z" style="fill:#e6e6e6"/><text/><path class = "logoColor" d="M200.25.25c-2.75,0-5,27.57-5,27.57,0,2,1.81,3.7,4.17,4v30a3,3,0,0,0,5.83,0V4.34C205.25,2.09,203,.25,200.25.25Z" style="fill:#e6e6e6"/></svg>