<svg class = "pageTransition__logo" xmlns="http://www.w3.org/2000/svg" width="205.25" height="73.87" viewBox="0 0 205.25 73.87"><g style="opacity:0.75;isolation:isolate"><text transform="translate(12 60.47) scale(1.19 1)" style="isolation:isolate;font-size:50px;fill:#f2f2f2;font-family:Optima-Regular, Optima;letter-spacing:-0.16499802252835075em">T</text><text transform="translate(35.21 60.47) scale(1.19 1)" style="opacity:0.75;isolation:isolate;font-size:30px;fill:#f2f2f2;font-family:Cochin-Italic, Cochin;font-style:italic;letter-spacing:-0.015988816633147822em">he</text><text transform="translate(62.48 60.47) scale(1.19 1)" style="isolation:isolate;font-size:36px;fill:#f2f2f2;font-family:MyriadPro-Regular, Myriad Pro;letter-spacing:-0.02399234317990887em"><tspan xml:space="preserve">  </tspan></text><text transform="translate(78.5 60.47) scale(1.19 1)" style="isolation:isolate;font-size:50px;fill:#f2f2f2;font-family:Optima-Regular, Optima">M</text><text transform="translate(131.39 60.47) scale(1.19 1)" style="opacity:0.75;isolation:isolate;font-size:30px;fill:#f2f2f2;font-family:Cochin-Italic, Cochin;font-style:italic;letter-spacing:-0.01600249397842853em">oston</text></g><path d="M10.54,0V17.82c0,.67-.4,1.22-.88,1.22s-.88-.55-.88-1.22V0H7V17.82C7,18.49,6.63,19,6.15,19s-.88-.55-.88-1.22V0h-2V17.82c0,.67-.4,1.22-.88,1.22s-.88-.55-.88-1.22V0H.21A6.32,6.32,0,0,0,0,1.62v15.8c0,2.67,1.58,4.86,3.51,4.86H4.87C3.74,34.09,2.93,61.69,2.93,61.69,2.93,63,4.24,64,5.85,64s2.93-1,2.93-2.31c0,0-.81-27.6-1.94-39.41H8.49c1.93,0,3.51-2.19,3.51-4.86V1.62A6.32,6.32,0,0,0,11.79,0Z" style="fill:#e6e6e6"/><path d="M200.25.25c-2.75,0-5,27.57-5,27.57,0,2,1.81,3.7,4.17,4v30a3,3,0,0,0,5.83,0V4.34C205.25,2.09,203,.25,200.25.25Z" style="fill:#e6e6e6"/></svg>