<svg class = "process__stepsIcon" id="Layer_1" enable-background="new 0 0 468.034 468.034" height="512" viewBox="0 0 468.034 468.034" width="512" xmlns="http://www.w3.org/2000/svg"><g><path d="m462.017 414.344h-174.658c2.025-.954 4.033-1.958 6.018-3.026.259-.139.505-.296.736-.467 18.408-10.042 34.136-24.598 45.528-42.146 1.805-2.779 1.014-6.495-1.765-8.299s-6.495-1.015-8.299 1.765c-10.474 16.132-24.998 29.47-42.003 38.574-.251.134-.489.285-.714.449-33.232 17.53-72.701 17.478-105.896-.157-.157-.104-.32-.202-.489-.292-31.727-16.984-53.218-47.515-58.929-82.292 6.234 6.773 14.501 12.973 24.635 18.372 23.561 12.554 54.755 19.468 87.836 19.468s64.275-6.914 87.836-19.468c24.758-13.191 38.393-31.159 38.393-50.593s-13.635-37.401-38.393-50.593c-23.561-12.554-54.755-19.467-87.836-19.467s-64.275 6.914-87.836 19.467c-24.758 13.192-38.393 31.159-38.393 50.593 0 4.518.229 9.054.229 13.582 0 46.513 25.362 89.065 66.231 111.208.159.106.324.206.495.297 1.985 1.068 3.994 2.073 6.018 3.026h-174.744c-3.313 0-6 2.687-6 6v41.69c0 3.313 2.687 6 6 6h456c3.313 0 6-2.687 6-6v-41.69c0-3.315-2.687-6.001-6-6.001zm-310.194-168.115c21.855-11.645 51.046-18.058 82.194-18.058s60.338 6.413 82.194 18.058c20.658 11.007 32.036 25.213 32.036 40.002s-11.377 28.995-32.036 40.002c-21.855 11.645-51.046 18.058-82.194 18.058s-60.338-6.413-82.194-18.058c-20.658-11.007-32.036-25.214-32.036-40.002s11.378-28.995 32.036-40.002zm304.194 209.805h-444v-29.69h444z"/><g><g><path d="m70.017 369.102c-11.028 0-20-8.972-20-20s8.972-20 20-20 20 8.972 20 20-8.972 20-20 20zm0-28c-4.411 0-8 3.589-8 8s3.589 8 8 8 8-3.589 8-8-3.589-8-8-8z"/></g><g><path d="m70.017 299.102c-11.028 0-20-8.972-20-20s8.972-20 20-20 20 8.972 20 20-8.972 20-20 20zm0-28c-4.411 0-8 3.589-8 8s3.589 8 8 8 8-3.589 8-8-3.589-8-8-8z"/></g><g><path d="m20.017 329.102c-11.028 0-20-8.972-20-20s8.972-20 20-20 20 8.972 20 20-8.972 20-20 20zm0-28c-4.411 0-8 3.589-8 8s3.589 8 8 8 8-3.589 8-8-3.589-8-8-8z"/></g></g><g><path d="m254.142 37.583c-6.927 0-13.739 1.607-19.957 4.678l-25.805-25.45c-.002-.002-.004-.003-.006-.005-.001-.001-.002-.003-.003-.004l-11.2-11c-7.881-7.737-20.227-7.737-28.115.007l-20.2 19.9c-5.589 5.507 2.957 13.929 8.422 8.549l20.193-19.894c3.165-3.108 8.126-3.109 11.292 0l6.848 6.726-42.554 41.919c-8.618 8.485-8.733 22.889-.003 31.346l29.706 29.306c8.424 8.289 22.465 8.183 30.917-.001l31.423-30.936 19.704-8.757c3.803-1.69 4.739-6.833 1.777-9.755l-23.136-22.818c3.439-1.189 7.046-1.81 10.698-1.81 17.024 0 30.875 13.907 30.875 31v10c0 3.441-1.759 6.606-4.705 8.466-6.337 4-.26 14.354 6.405 10.147 6.449-4.071 10.299-11.03 10.299-18.614v-10c0-23.71-19.234-43-42.875-43zm-14.912 44.618c-.659.292-1.259.702-1.773 1.207l-32.164 31.666c-3.933 3.808-10.267 3.824-14.112.039l-29.739-29.338c-3.904-3.781-3.753-10.427.036-14.216l42.687-42.05 47.723 47.067z"/><g><path d="m279.567 178.284c-12.131 0-22-9.869-22-22 0-10.354 13.477-25.646 17.607-30.086 2.342-2.517 6.445-2.517 8.786 0 4.13 4.44 17.607 19.732 17.607 30.086 0 12.13-9.87 22-22 22zm0-38.852c-5.368 6.592-10 13.823-10 16.852 0 5.514 4.486 10 10 10s10-4.486 10-10c0-3.029-4.632-10.26-10-16.852z"/></g></g><g><g><path d="m408.016 371.436s.001 0 0 0c-11.543 0-22.544-4.924-30.183-13.509-2.023-2.274-2.023-5.703 0-7.977 7.639-8.585 18.64-13.509 30.183-13.509s22.544 4.924 30.184 13.509c2.023 2.274 2.023 5.703 0 7.977-7.639 8.585-18.642 13.509-30.184 13.509zm-16.832-17.497c4.828 3.539 10.721 5.498 16.833 5.498 6.111 0 12.004-1.958 16.833-5.498-4.829-3.539-10.722-5.498-16.833-5.498-6.113 0-12.005 1.959-16.833 5.498z"/></g><g><path d="m408.016 284.432s.001 0 0 0c-11.543 0-22.544-4.924-30.183-13.509-2.023-2.274-2.023-5.703 0-7.977 7.639-8.585 18.64-13.509 30.183-13.509s22.544 4.924 30.184 13.509c2.023 2.274 2.023 5.703 0 7.977-7.639 8.584-18.642 13.509-30.184 13.509zm-16.832-17.498c4.828 3.539 10.721 5.498 16.833 5.498 6.111 0 12.004-1.958 16.833-5.498-4.829-3.539-10.722-5.498-16.833-5.498-6.113 0-12.005 1.959-16.833 5.498z"/></g><g><path d="m436.316 328.432c-11.543 0-22.544-4.924-30.184-13.509-2.023-2.274-2.023-5.703 0-7.977 7.639-8.585 18.641-13.509 30.184-13.509 11.542 0 22.544 4.924 30.183 13.509 2.023 2.274 2.023 5.703 0 7.977-7.639 8.585-18.64 13.509-30.183 13.509zm-16.833-17.498c4.829 3.539 10.721 5.498 16.833 5.498 6.111 0 12.004-1.958 16.833-5.498-4.829-3.539-10.721-5.498-16.833-5.498s-12.004 1.959-16.833 5.498z"/></g></g><g><path d="m440.142 111.008c-.268 0-.535.01-.8.026h-88.65c-.265-.016-.531-.026-.8-.026-9.462 0-16.875 9.793-16.875 22.295 0 7.916 4.786 22.296 15 22.296h62c3.313 0 6-2.687 6-6s-2.687-6-6-6h-45.099c2.487-6.448 2.488-14.12.01-20.565h60.178c-1.176 3.058-1.839 6.542-1.839 10.27 0 12.502 7.413 22.296 16.875 22.296s16.875-9.793 16.875-22.296-7.413-22.296-16.875-22.296zm-90.25 32.591c-1.719 0-4.875-3.909-4.875-10.296s3.156-10.295 4.875-10.295 4.875 3.909 4.875 10.295-3.156 10.296-4.875 10.296zm90.25 0c-1.719 0-4.875-3.909-4.875-10.296s3.156-10.295 4.875-10.295 4.875 3.909 4.875 10.295-3.156 10.296-4.875 10.296z"/></g><g><circle cx="260.567" cy="101.621" r="7"/></g><g><circle cx="346.517" cy="341.441" r="7"/></g><path d="m115.827 159.845c10.953-7.54 18.432-19.172 20.719-32.484.489-2.85-1.124-5.644-3.836-6.645-12.672-4.675-26.486-4.015-38.492 1.701-1.053-13.255-7.388-25.549-17.773-34.185-2.224-1.849-5.449-1.849-7.673 0-10.385 8.636-16.719 20.93-17.772 34.185-12.005-5.715-25.819-6.377-38.492-1.701-2.713 1.001-4.326 3.794-3.836 6.645 2.287 13.313 9.771 24.942 20.725 32.481-10.956 7.539-18.437 19.173-20.725 32.488-.489 2.85 1.124 5.644 3.836 6.645 5.628 2.077 11.48 3.104 17.302 3.104 7.288 0 14.514-1.641 21.188-4.824 1.049 13.263 7.384 25.564 17.774 34.205 1.112.924 2.474 1.387 3.836 1.387s2.725-.462 3.836-1.387c10.385-8.636 16.719-20.929 17.773-34.184 6.674 3.177 13.903 4.803 21.19 4.803 5.821 0 11.675-1.027 17.302-3.104 2.713-1.001 4.326-3.794 3.836-6.645-2.285-13.313-9.765-24.945-20.718-32.485zm7.635-29.36c-2.83 8.874-8.818 16.388-16.949 21.083s-17.631 6.123-26.732 4.137c2.83-8.874 8.818-16.388 16.949-21.083 8.132-4.694 17.632-6.122 26.732-4.137zm-50.853-29.36c6.27 6.888 9.783 15.831 9.783 25.22 0 1.398-.082 2.784-.237 4.156-3.793 3.458-7.008 7.481-9.55 11.92-2.539-4.431-5.75-8.443-9.535-11.897-.156-1.38-.245-2.773-.245-4.178.001-9.39 3.515-18.332 9.784-25.221zm-50.852 29.36c9.099-1.985 18.6-.557 26.732 4.137 6.826 3.941 12.129 9.875 15.333 16.926-7.199-.943-14.491-.303-21.389 1.893-1.268-.553-2.515-1.173-3.728-1.874-8.13-4.694-14.118-12.208-16.948-21.082zm0 58.72c2.83-8.874 8.818-16.388 16.949-21.083 6.807-3.929 14.571-5.56 22.258-4.827.09-.107.199-.199.301-.297-4.542 5.833-7.713 12.58-9.289 19.775-1.114.822-2.273 1.593-3.487 2.294-8.131 4.696-17.631 6.124-26.732 4.138zm50.852 29.36c-6.27-6.888-9.783-15.831-9.783-25.22 0-7.879 2.482-15.438 6.983-21.737 2.781 6.701 6.984 12.689 12.329 17.563.155 1.379.255 2.77.255 4.174-.001 9.389-3.514 18.332-9.784 25.22zm24.12-33.497c-6.821-3.939-12.126-9.867-15.331-16.912 7.117.931 14.521.262 21.362-1.912 1.277.553 2.532 1.174 3.753 1.879 8.131 4.695 14.119 12.209 16.949 21.083-9.1 1.985-18.601.556-26.733-4.138z"/><path d="m349.892 221.599c.268 0 .535-.01.8-.026h88.65c.265.016.531.026.8.026 9.462 0 16.875-9.793 16.875-22.295 0-7.916-4.786-22.296-15-22.296h-62c-3.313 0-6 2.687-6 6s2.687 6 6 6h45.099c-2.487 6.448-2.488 14.12-.01 20.565h-60.178c1.176-3.058 1.839-6.542 1.839-10.27 0-12.502-7.413-22.296-16.875-22.296s-16.875 9.793-16.875 22.296 7.412 22.296 16.875 22.296zm90.25-32.591c1.719 0 4.875 3.909 4.875 10.296s-3.156 10.295-4.875 10.295-4.875-3.909-4.875-10.295 3.156-10.296 4.875-10.296zm-90.25 0c1.719 0 4.875 3.909 4.875 10.296s-3.156 10.295-4.875 10.295-4.875-3.909-4.875-10.295 3.156-10.296 4.875-10.296z"/></g></svg>